<svg width="3754" height="2819" xmlns="http://www.w3.org/2000/svg" xmlns:xlink="http://www.w3.org/1999/xlink" overflow="hidden"><defs><clipPath id="clip0"><rect x="165" y="88" width="3754" height="2819"/></clipPath><clipPath id="clip1"><rect x="167" y="-124" width="516" height="540"/></clipPath><clipPath id="clip2"><rect x="682" y="-124" width="2767" height="540"/></clipPath><clipPath id="clip3"><rect x="3448" y="-124" width="462" height="540"/></clipPath><clipPath id="clip4"><rect x="682" y="-364" width="2767" height="2311"/></clipPath><clipPath id="clip5"><rect x="682" y="-364" width="2767" height="2311"/></clipPath><clipPath id="clip6"><rect x="682" y="-364" width="2767" height="2311"/></clipPath><clipPath id="clip7"><rect x="682" y="-364" width="2767" height="2311"/></clipPath><clipPath id="clip8"><rect x="682" y="593" width="2767" height="925"/></clipPath><clipPath id="clip9"><rect x="682" y="593" width="2767" height="925"/></clipPath><clipPath id="clip10"><rect x="682" y="890" width="2767" height="1387"/></clipPath><clipPath id="clip11"><rect x="682" y="890" width="2767" height="1387"/></clipPath><clipPath id="clip12"><rect x="682" y="890" width="2767" height="1387"/></clipPath><clipPath id="clip13"><rect x="682" y="725" width="2767" height="2311"/></clipPath><clipPath id="clip14"><rect x="682" y="725" width="2767" height="2311"/></clipPath><clipPath id="clip15"><rect x="682" y="725" width="2767" height="2311"/></clipPath><clipPath id="clip16"><rect x="682" y="725" width="2767" height="2311"/></clipPath><clipPath id="clip17"><rect x="682" y="725" width="2767" height="2311"/></clipPath><clipPath id="clip18"><rect x="682" y="1484" width="2767" height="1387"/></clipPath><clipPath id="clip19"><rect x="682" y="1484" width="2767" height="1387"/></clipPath><clipPath id="clip20"><rect x="682" y="1484" width="2767" height="1387"/></clipPath><clipPath id="clip21"><rect x="682" y="1715" width="2767" height="1387"/></clipPath><clipPath id="clip22"><rect x="682" y="1715" width="2767" height="1387"/></clipPath><clipPath id="clip23"><rect x="682" y="2144" width="2767" height="925"/></clipPath><clipPath id="clip24"><rect x="682" y="2144" width="2767" height="925"/></clipPath><clipPath id="clip25"><rect x="682" y="2309" width="2767" height="925"/></clipPath><clipPath id="clip26"><rect x="682" y="2309" width="2767" height="925"/></clipPath></defs><g clip-path="url(#clip0)" transform="translate(-165 -88)"><path d="M167.619 91.3545 682.14 91.3545 682.14 214.379 167.619 214.379Z" fill="#A5A5A5" fill-rule="evenodd"/><path d="M682.14 91.3545 3448.16 91.3545 3448.16 214.379 682.14 214.379Z" fill="#A5A5A5" fill-rule="evenodd"/><path d="M3448.16 91.3545 3909.49 91.3545 3909.49 214.379 3448.16 214.379Z" fill="#A5A5A5" fill-rule="evenodd"/><path d="M167.619 214.379 682.14 214.379 682.14 379.379 167.619 379.379Z" fill="#E1E1E1" fill-rule="evenodd"/><path d="M682.14 214.379 3448.16 214.379 3448.16 379.379 682.14 379.379Z" fill="#E1E1E1" fill-rule="evenodd"/><path d="M3448.16 214.379 3909.49 214.379 3909.49 379.379 3448.16 379.379Z" fill="#E1E1E1" fill-rule="evenodd"/><path d="M167.619 379.379 682.14 379.379 682.14 610.379 167.619 610.379Z" fill="#F0F0F0" fill-rule="evenodd"/><path d="M682.14 379.379 3448.16 379.379 3448.16 610.379 682.14 610.379Z" fill="#F0F0F0" fill-rule="evenodd"/><path d="M3448.16 379.379 3909.49 379.379 3909.49 610.379 3448.16 610.379Z" fill="#F0F0F0" fill-rule="evenodd"/><path d="M167.619 610.379 682.14 610.379 682.14 973.379 167.619 973.379Z" fill="#E1E1E1" fill-rule="evenodd"/><path d="M682.14 610.379 3448.16 610.379 3448.16 973.379 682.14 973.379Z" fill="#E1E1E1" fill-rule="evenodd"/><path d="M3448.16 610.379 3909.49 610.379 3909.49 973.379 3448.16 973.379Z" fill="#E1E1E1" fill-rule="evenodd"/><path d="M167.619 973.379 682.14 973.379 682.14 1138.38 167.619 1138.38Z" fill="#F0F0F0" fill-rule="evenodd"/><path d="M682.14 973.379 3448.16 973.379 3448.16 1138.38 682.14 1138.38Z" fill="#F0F0F0" fill-rule="evenodd"/><path d="M3448.16 973.379 3909.49 973.379 3909.49 1138.38 3448.16 1138.38Z" fill="#F0F0F0" fill-rule="evenodd"/><path d="M167.619 1138.38 682.14 1138.38 682.14 1303.38 167.619 1303.38Z" fill="#E1E1E1" fill-rule="evenodd"/><path d="M682.14 1138.38 3448.16 1138.38 3448.16 1303.38 682.14 1303.38Z" fill="#E1E1E1" fill-rule="evenodd"/><path d="M3448.16 1138.38 3909.49 1138.38 3909.49 1303.38 3448.16 1303.38Z" fill="#E1E1E1" fill-rule="evenodd"/><path d="M167.619 1303.38 682.14 1303.38 682.14 1468.38 167.619 1468.38Z" fill="#F0F0F0" fill-rule="evenodd"/><path d="M682.14 1303.38 3448.16 1303.38 3448.16 1468.38 682.14 1468.38Z" fill="#F0F0F0" fill-rule="evenodd"/><path d="M3448.16 1303.38 3909.49 1303.38 3909.49 1468.38 3448.16 1468.38Z" fill="#F0F0F0" fill-rule="evenodd"/><path d="M167.619 1468.38 682.14 1468.38 682.14 1699.38 167.619 1699.38Z" fill="#E1E1E1" fill-rule="evenodd"/><path d="M682.14 1468.38 3448.16 1468.38 3448.16 1699.38 682.14 1699.38Z" fill="#E1E1E1" fill-rule="evenodd"/><path d="M3448.16 1468.38 3909.49 1468.38 3909.49 1699.38 3448.16 1699.38Z" fill="#E1E1E1" fill-rule="evenodd"/><path d="M167.619 1699.38 682.14 1699.38 682.14 2062.38 167.619 2062.38Z" fill="#F0F0F0" fill-rule="evenodd"/><path d="M682.14 1699.38 3448.16 1699.38 3448.16 2062.38 682.14 2062.38Z" fill="#F0F0F0" fill-rule="evenodd"/><path d="M3448.16 1699.38 3909.49 1699.38 3909.49 2062.38 3448.16 2062.38Z" fill="#F0F0F0" fill-rule="evenodd"/><path d="M167.619 2062.38 682.14 2062.38 682.14 2293.38 167.619 2293.38Z" fill="#E1E1E1" fill-rule="evenodd"/><path d="M682.14 2062.38 3448.16 2062.38 3448.16 2293.38 682.14 2293.38Z" fill="#E1E1E1" fill-rule="evenodd"/><path d="M3448.16 2062.38 3909.49 2062.38 3909.49 2293.38 3448.16 2293.38Z" fill="#E1E1E1" fill-rule="evenodd"/><path d="M167.619 2293.38 682.14 2293.38 682.14 2524.38 167.619 2524.38Z" fill="#F0F0F0" fill-rule="evenodd"/><path d="M682.14 2293.38 3448.16 2293.38 3448.16 2524.38 682.14 2524.38Z" fill="#F0F0F0" fill-rule="evenodd"/><path d="M3448.16 2293.38 3909.49 2293.38 3909.49 2524.38 3448.16 2524.38Z" fill="#F0F0F0" fill-rule="evenodd"/><path d="M167.619 2524.38 682.14 2524.38 682.14 2689.38 167.619 2689.38Z" fill="#E1E1E1" fill-rule="evenodd"/><path d="M682.14 2524.38 3448.16 2524.38 3448.16 2689.38 682.14 2689.38Z" fill="#E1E1E1" fill-rule="evenodd"/><path d="M3448.16 2524.38 3909.49 2524.38 3909.49 2689.38 3448.16 2689.38Z" fill="#E1E1E1" fill-rule="evenodd"/><path d="M167.619 2689.38 682.14 2689.38 682.14 2901.72 167.619 2901.72Z" fill="#F0F0F0" fill-rule="evenodd"/><path d="M682.14 2689.38 3448.16 2689.38 3448.16 2901.72 682.14 2901.72Z" fill="#F0F0F0" fill-rule="evenodd"/><path d="M3448.16 2689.38 3909.49 2689.38 3909.49 2901.72 3448.16 2901.72Z" fill="#F0F0F0" fill-rule="evenodd"/><path d="M682.14 89.0628 682.14 2904.02" stroke="#FFFFFF" stroke-width="4.58333" stroke-linejoin="round" stroke-miterlimit="10" fill="none" fill-rule="evenodd"/><path d="M3448.16 89.0628 3448.16 2904.02" stroke="#FFFFFF" stroke-width="4.58333" stroke-linejoin="round" stroke-miterlimit="10" fill="none" fill-rule="evenodd"/><path d="M165.327 214.379 3911.78 214.379" stroke="#FFFFFF" stroke-width="13.75" stroke-linejoin="round" stroke-miterlimit="10" fill="none" fill-rule="evenodd"/><path d="M165.327 379.379 3911.78 379.379" stroke="#FFFFFF" stroke-width="4.58333" stroke-linejoin="round" stroke-miterlimit="10" fill="none" fill-rule="evenodd"/><path d="M165.327 610.379 3911.78 610.379" stroke="#FFFFFF" stroke-width="4.58333" stroke-linejoin="round" stroke-miterlimit="10" fill="none" fill-rule="evenodd"/><path d="M165.327 973.379 3911.78 973.379" stroke="#FFFFFF" stroke-width="4.58333" stroke-linejoin="round" stroke-miterlimit="10" fill="none" fill-rule="evenodd"/><path d="M165.327 1138.38 3911.78 1138.38" stroke="#FFFFFF" stroke-width="4.58333" stroke-linejoin="round" stroke-miterlimit="10" fill="none" fill-rule="evenodd"/><path d="M165.327 1303.38 3911.78 1303.38" stroke="#FFFFFF" stroke-width="4.58333" stroke-linejoin="round" stroke-miterlimit="10" fill="none" fill-rule="evenodd"/><path d="M165.327 1468.38 3911.78 1468.38" stroke="#FFFFFF" stroke-width="4.58333" stroke-linejoin="round" stroke-miterlimit="10" fill="none" fill-rule="evenodd"/><path d="M165.327 1699.38 3911.78 1699.38" stroke="#FFFFFF" stroke-width="4.58333" stroke-linejoin="round" stroke-miterlimit="10" fill="none" fill-rule="evenodd"/><path d="M165.327 2062.38 3911.78 2062.38" stroke="#FFFFFF" stroke-width="4.58333" stroke-linejoin="round" stroke-miterlimit="10" fill="none" fill-rule="evenodd"/><path d="M165.327 2293.38 3911.78 2293.38" stroke="#FFFFFF" stroke-width="4.58333" stroke-linejoin="round" stroke-miterlimit="10" fill="none" fill-rule="evenodd"/><path d="M165.327 2524.38 3911.78 2524.38" stroke="#FFFFFF" stroke-width="4.58333" stroke-linejoin="round" stroke-miterlimit="10" fill="none" fill-rule="evenodd"/><path d="M165.327 2689.38 3911.78 2689.38" stroke="#FFFFFF" stroke-width="4.58333" stroke-linejoin="round" stroke-miterlimit="10" fill="none" fill-rule="evenodd"/><path d="M167.619 89.0628 167.619 2904.02" stroke="#FFFFFF" stroke-width="4.58333" stroke-linejoin="round" stroke-miterlimit="10" fill="none" fill-rule="evenodd"/><path d="M3909.49 89.0628 3909.49 2904.02" stroke="#FFFFFF" stroke-width="4.58333" stroke-linejoin="round" stroke-miterlimit="10" fill="none" fill-rule="evenodd"/><path d="M165.327 91.3545 3911.78 91.3545" stroke="#FFFFFF" stroke-width="4.58333" stroke-linejoin="round" stroke-miterlimit="10" fill="none" fill-rule="evenodd"/><path d="M165.327 2901.72 3911.78 2901.72" stroke="#FFFFFF" stroke-width="4.58333" stroke-linejoin="round" stroke-miterlimit="10" fill="none" fill-rule="evenodd"/><g clip-path="url(#clip1)"><text fill="#FFFFFF" font-family="Calibri,Calibri_MSFontService,sans-serif" font-weight="700" font-size="64" transform="matrix(1 0 0 1 200.619 168)">Tool</text></g><g clip-path="url(#clip2)"><text fill="#FFFFFF" font-family="Calibri,Calibri_MSFontService,sans-serif" font-weight="700" font-size="64" transform="matrix(1 0 0 1 715.14 168)">Usage</text></g><g clip-path="url(#clip3)"><text fill="#FFFFFF" font-family="Calibri,Calibri_MSFontService,sans-serif" font-weight="700" font-size="64" transform="matrix(1 0 0 1 3481.16 168)">License</text></g><text font-family="Calibri,Calibri_MSFontService,sans-serif" font-weight="700" font-size="55" transform="matrix(1 0 0 1 200.619 282)">Microsoft 365 <tspan font-size="55" x="330.481" y="0">-</tspan><tspan font-size="55" x="0" y="66">Office</tspan><tspan font-weight="400" font-size="55" x="514.521" y="0">Complete Office 365 Suite, </tspan><tspan font-weight="400" font-size="55" x="1123.81" y="0">PowerBi</tspan><tspan font-weight="400" font-size="55" x="1320.82" y="0">Pro, Power Automate</tspan><tspan font-weight="400" font-size="55" x="3280.54" y="0">M365 E5</tspan><tspan font-weight="400" font-size="55" x="3280.54" y="66">Gold Partnership</tspan><tspan font-size="55" x="0" y="165">Microsoft 365 </tspan><tspan font-size="55" x="330.481" y="165">-</tspan><tspan font-size="55" x="0" y="231">Devices</tspan><tspan font-weight="400" font-size="55" x="514.521" y="165">Full Intune Management, E5 Defender/ATP</tspan><tspan font-weight="400" font-size="55" x="514.521" y="231">Email Protection, AIP Unified</tspan><tspan font-weight="400" font-size="55" x="1158.71" y="231">-</tspan><tspan font-weight="400" font-size="55" x="1175.32" y="231">Labeling</tspan><tspan font-weight="400" font-size="55" x="3280.54" y="165">M365 E5</tspan><tspan font-weight="400" font-size="55" x="3280.54" y="231">Gold Partnership</tspan><tspan font-size="55" x="0" y="396">Microsoft TEAMS</tspan><tspan font-weight="400" font-size="55" x="514.521" y="396">Microsoft TEAMS with calling Plan (Voice), conference bridge with legacy dial</tspan><tspan font-weight="400" font-size="55" x="2228.64" y="396">-</tspan><tspan font-weight="400" font-size="55" x="2245.26" y="396">in (PSTN </tspan><tspan font-weight="400" font-size="55" x="2444.27" y="396">–</tspan><tspan font-weight="400" font-size="55" x="2484.37" y="396">optional, available on request!)</tspan></text><g clip-path="url(#clip4)"><text font-family="Calibri,Calibri_MSFontService,sans-serif" font-weight="400" font-size="55" transform="matrix(1 0 0 1 715.14 744)">-</text></g><text font-family="Calibri,Calibri_MSFontService,sans-serif" font-weight="700" font-size="55" transform="matrix(1 0 0 1 777.015 744)">Used in our Service Desk <tspan font-weight="400" font-size="55" x="574.544" y="0">(dedicated PSTN</tspan><tspan font-weight="400" font-size="55" x="939.858" y="0">-</tspan><tspan font-weight="400" font-size="55" x="956.473" y="0">numbers)</tspan></text><g clip-path="url(#clip5)"><text font-family="Calibri,Calibri_MSFontService,sans-serif" font-weight="400" font-size="55" transform="matrix(1 0 0 1 715.14 810)">-</text></g><text font-family="Calibri,Calibri_MSFontService,sans-serif" font-weight="700" font-size="55" transform="matrix(1 0 0 1 777.015 810)">For every managed customer we use dedicated TEAMS</text><g clip-path="url(#clip6)"><text font-family="Calibri,Calibri_MSFontService,sans-serif" font-weight="400" font-size="55" transform="matrix(1 0 0 1 715.14 876)">-</text></g><text font-family="Calibri,Calibri_MSFontService,sans-serif" font-weight="700" font-size="55" transform="matrix(1 0 0 1 777.015 876)">Every customer TEAMS using 3 distinct channels to add additional info's <tspan font-weight="400" font-size="55" x="1649.4" y="0">(Jira</tspan><tspan font-weight="400" font-size="55" x="1740.52" y="0">-</tspan><tspan font-weight="400" font-size="55" x="1769.74" y="0">und GitHub Connector, Alerting ..)</tspan></text><g clip-path="url(#clip7)"><text font-family="Calibri,Calibri_MSFontService,sans-serif" font-weight="400" font-size="55" transform="matrix(1 0 0 1 715.14 942)">-</text></g><text font-family="Calibri,Calibri_MSFontService,sans-serif" font-weight="700" font-size="55" transform="matrix(1 0 0 1 777.015 942)">Used for any internal communication (chapter chat<tspan font-size="55" x="1162.72" y="0">-</tspan><tspan font-size="55" x="1179.34" y="0">groups)</tspan><tspan font-weight="400" font-size="55" x="2704.15" y="-264">M365 E5</tspan><tspan font-weight="400" font-size="55" x="2704.15" y="-198">+ Addon</tspan><tspan font-weight="400" font-size="55" x="2891.49" y="-198">-</tspan><tspan font-weight="400" font-size="55" x="2908.11" y="-198">Licenses</tspan><tspan font-size="55" x="-576.396" y="99">Microsoft Azure</tspan></text><g clip-path="url(#clip8)"><text font-family="Calibri,Calibri_MSFontService,sans-serif" font-weight="400" font-size="55" transform="matrix(1 0 0 1 715.14 1041)">-</text></g><text font-family="Calibri,Calibri_MSFontService,sans-serif" font-weight="400" font-size="55" transform="matrix(1 0 0 1 777.015 1041)">Every employee gets Visual Studio Enterprise and therefore 150€/month private consumption</text><g clip-path="url(#clip9)"><text font-family="Calibri,Calibri_MSFontService,sans-serif" font-weight="400" font-size="55" transform="matrix(1 0 0 1 715.14 1107)">-</text></g><text font-family="Calibri,Calibri_MSFontService,sans-serif" font-weight="400" font-size="55" transform="matrix(1 0 0 1 777.015 1107)">We have a sponsored “Gold Subscription” for more advanced testing<tspan font-size="55" x="2704.15" y="-66">Cloud Gold</tspan><tspan font-size="55" x="2704.15" y="0">Partnership</tspan><tspan font-weight="700" font-size="55" x="-576.396" y="99">Amazon AWS</tspan><tspan font-style="italic" font-size="55" x="-61.8749" y="99">-</tspan><tspan font-size="55" x="-32.6562" y="99">We use AWS Organizations &amp; SSO (access to AWS member account on per</tspan>-<tspan font-size="55" x="1632.13" y="99">user</tspan><tspan font-size="55" x="1728.95" y="99">-</tspan><tspan font-size="55" x="1745.56" y="99">request)</tspan><tspan font-size="55" x="2704.15" y="99">Partnership </tspan><tspan font-size="55" x="2704.15" y="165">Select</tspan><tspan font-weight="700" font-size="55" x="-576.396" y="264">Architecture </tspan><tspan font-weight="700" font-size="55" x="-576.396" y="330">Drawing </tspan><tspan font-size="55" x="-61.8749" y="264">Use </tspan><tspan fill="#0563C1" font-size="55" x="35.5209" y="264">https://draw.io</tspan><tspan font-size="55" x="396.183" y="264">desktop client</tspan></text><path d="M812.14 1376.88 1148.14 1376.88 1148.14 1380.88 812.14 1380.88Z" fill="#0563C1" fill-rule="evenodd"/><text font-family="Calibri,Calibri_MSFontService,sans-serif" font-weight="400" font-size="55" transform="matrix(1 0 0 1 715.14 1437)">Visio licenses are limited <tspan font-size="55" x="561.275" y="0">–</tspan><tspan font-size="55" x="601.379" y="0">only per request!</tspan><tspan font-size="55" x="2766.02" y="-66">Freeware</tspan><tspan font-weight="700" font-size="55" x="-514.521" y="99">GitHub (Enterprise)</tspan></text><g clip-path="url(#clip10)"><text font-family="Calibri,Calibri_MSFontService,sans-serif" font-weight="400" font-size="55" transform="matrix(1 0 0 1 715.14 1536)">-</text></g><text font-family="Calibri,Calibri_MSFontService,sans-serif" font-weight="700" font-size="55" transform="matrix(1 0 0 1 777.015 1536)">Used for all customer squads to store any related architecture, deployment &amp; operational runbooks</text><g clip-path="url(#clip11)"><text font-family="Calibri,Calibri_MSFontService,sans-serif" font-weight="400" font-size="55" transform="matrix(1 0 0 1 715.14 1602)">-</text></g><text font-family="Calibri,Calibri_MSFontService,sans-serif" font-weight="700" font-size="55" transform="matrix(1 0 0 1 777.015 1602)">Used for any development relevant activities, like DEP_VIEW Dashboard or our deployment framework</text><g clip-path="url(#clip12)"><text font-family="Calibri,Calibri_MSFontService,sans-serif" font-weight="400" font-size="55" transform="matrix(1 0 0 1 715.14 1668)">-</text></g><text font-family="Calibri,Calibri_MSFontService,sans-serif" font-weight="700" font-size="55" transform="matrix(1 0 0 1 777.015 1668)">Organize overall Cloudeteer activities and to have full transparency of our chapters and customer activities<tspan font-weight="400" font-size="55" x="2704.15" y="-132">GitHub </tspan><tspan font-weight="400" font-size="55" x="2704.15" y="-66">Enterprise</tspan><tspan font-weight="400" font-size="55" x="2704.15" y="0">per employee</tspan><tspan font-size="55" x="-576.396" y="99">Atlassian Service </tspan><tspan font-size="55" x="-576.396" y="165">Management (Jira)</tspan></text><g clip-path="url(#clip13)"><text font-family="Calibri,Calibri_MSFontService,sans-serif" font-weight="400" font-size="55" transform="matrix(1 0 0 1 715.14 1767)">-</text></g><text font-family="Calibri,Calibri_MSFontService,sans-serif" font-weight="700" font-size="55" transform="matrix(1 0 0 1 777.015 1767)">Our ServiceDesk Tool</text><g clip-path="url(#clip14)"><text font-family="Calibri,Calibri_MSFontService,sans-serif" font-weight="400" font-size="55" transform="matrix(1 0 0 1 715.14 1833)">-</text></g><text font-family="Calibri,Calibri_MSFontService,sans-serif" font-weight="700" font-size="55" transform="matrix(1 0 0 1 777.015 1833)">Many integrations, like Azure<tspan font-size="55" x="666.325" y="0">-</tspan><tspan font-size="55" x="682.94" y="0">AD SSO, as well many rules for service automations</tspan></text><g clip-path="url(#clip15)"><text font-family="Calibri,Calibri_MSFontService,sans-serif" font-weight="400" font-size="55" transform="matrix(1 0 0 1 715.14 1899)">-</text></g><text font-family="Calibri,Calibri_MSFontService,sans-serif" font-weight="700" font-size="55" transform="matrix(1 0 0 1 777.015 1899)">Dedicated Jira projects for every customer</text><g clip-path="url(#clip16)"><text font-family="Calibri,Calibri_MSFontService,sans-serif" font-weight="400" font-size="55" transform="matrix(1 0 0 1 715.14 1965)">-</text></g><text font-family="Calibri,Calibri_MSFontService,sans-serif" font-weight="700" font-size="55" transform="matrix(1 0 0 1 777.015 1965)">Customer Jira landing page for ITSM reports &amp; ticket insights</text><g clip-path="url(#clip17)"><text font-family="Calibri,Calibri_MSFontService,sans-serif" font-weight="400" font-size="55" transform="matrix(1 0 0 1 715.14 2031)">-</text></g><text font-family="Calibri,Calibri_MSFontService,sans-serif" font-weight="700" font-size="55" transform="matrix(1 0 0 1 777.015 2031)">Available for any employee supporting managed services ticketing &amp; changes<tspan font-weight="400" font-size="55" x="2704.15" y="-264">Licensed per </tspan><tspan font-weight="400" font-size="55" x="2704.15" y="-198">employee</tspan><tspan font-size="55" x="-576.396" y="99">Microsoft </tspan><tspan font-size="55" x="-576.396" y="165">Dynamics</tspan></text><g clip-path="url(#clip18)"><text font-family="Calibri,Calibri_MSFontService,sans-serif" font-weight="400" font-size="55" transform="matrix(1 0 0 1 715.14 2130)">-</text></g><text font-family="Calibri,Calibri_MSFontService,sans-serif" font-weight="700" font-size="55" transform="matrix(1 0 0 1 777.015 2130)">New Enterprise Resource Planning tool</text><g clip-path="url(#clip19)"><text font-family="Calibri,Calibri_MSFontService,sans-serif" font-weight="400" font-size="55" transform="matrix(1 0 0 1 715.14 2196)">-</text></g><text font-family="Calibri,Calibri_MSFontService,sans-serif" font-weight="700" font-size="55" transform="matrix(1 0 0 1 777.015 2196)">Project &amp; time tracking</text><g clip-path="url(#clip20)"><text font-family="Calibri,Calibri_MSFontService,sans-serif" font-weight="400" font-size="55" transform="matrix(1 0 0 1 715.14 2262)">-</text></g><text font-family="Calibri,Calibri_MSFontService,sans-serif" font-weight="700" font-size="55" transform="matrix(1 0 0 1 777.015 2262)">Complete contract management &amp; invoicing automation<tspan font-weight="400" font-size="55" x="2704.15" y="-132">M365 Dynamics</tspan><tspan font-weight="400" font-size="55" x="2704.15" y="-66">Gold Partnership</tspan><tspan font-size="55" x="-576.396" y="99">ZOHO Books</tspan></text><g clip-path="url(#clip21)"><text font-family="Calibri,Calibri_MSFontService,sans-serif" font-weight="400" font-size="55" transform="matrix(1 0 0 1 715.14 2361)">-</text></g><text font-family="Calibri,Calibri_MSFontService,sans-serif" font-weight="700" font-size="55" transform="matrix(1 0 0 1 777.015 2361)">Current project time tracking &amp; invoicing baseline</text><g clip-path="url(#clip22)"><text font-family="Calibri,Calibri_MSFontService,sans-serif" font-weight="400" font-size="55" transform="matrix(1 0 0 1 715.14 2427)">-</text></g><text font-family="Calibri,Calibri_MSFontService,sans-serif" font-weight="700" font-size="55" transform="matrix(1 0 0 1 777.015 2427)">Employee travelling expense management (<tspan font-size="55" x="996.05" y="0">Zoho</tspan><tspan font-size="55" x="1123.7" y="0">EXPENSE)</tspan><tspan font-size="55" x="-61.8749" y="66">!!WILL BE MIGRATED COMPLETELY BY MID 2022 TO DYNAMICS!!</tspan><tspan font-weight="400" font-size="55" x="2704.15" y="-66">Licensed per </tspan><tspan font-weight="400" font-size="55" x="2704.15" y="0">employee</tspan><tspan font-size="55" x="-576.396" y="165">Hetzner</tspan><tspan font-size="55" x="-384.263" y="165">Cloud </tspan></text><g clip-path="url(#clip23)"><text font-family="Calibri,Calibri_MSFontService,sans-serif" font-weight="400" font-size="55" transform="matrix(1 0 0 1 715.14 2592)">-</text></g><text font-family="Calibri,Calibri_MSFontService,sans-serif" font-weight="700" font-size="55" transform="matrix(1 0 0 1 777.015 2592)">Dedicated VM’s on <tspan font-size="55" x="441.719" y="0">Hetzner</tspan><tspan font-size="55" x="633.852" y="0">Cloud for internal OPS.STACK, DEEP_VIEW deployments</tspan></text><g clip-path="url(#clip24)"><text font-family="Calibri,Calibri_MSFontService,sans-serif" font-weight="400" font-size="55" transform="matrix(1 0 0 1 715.14 2658)">-</text></g><text font-family="Calibri,Calibri_MSFontService,sans-serif" font-weight="700" font-size="55" transform="matrix(1 0 0 1 777.015 2658)">CDT Website, Keeper SSO and private GitHub Runners/DevOps Agents<tspan font-weight="400" font-size="55" x="2704.15" y="-66">Monthly fee</tspan><tspan font-size="55" x="-576.396" y="99">HubSpot</tspan></text><g clip-path="url(#clip25)"><text font-family="Calibri,Calibri_MSFontService,sans-serif" font-weight="400" font-size="55" transform="matrix(1 0 0 1 715.14 2757)">-</text></g><text font-family="Calibri,Calibri_MSFontService,sans-serif" font-weight="700" font-size="55" transform="matrix(1 0 0 1 777.015 2757)">Sales database, CRM</text><g clip-path="url(#clip26)"><text font-family="Calibri,Calibri_MSFontService,sans-serif" font-weight="400" font-size="55" transform="matrix(1 0 0 1 715.14 2823)">-</text></g><text font-family="Calibri,Calibri_MSFontService,sans-serif" font-weight="700" font-size="55" transform="matrix(1 0 0 1 777.015 2823)">CDT Website integrated<tspan font-weight="400" font-size="55" x="2704.15" y="-66">Licensed per </tspan><tspan font-weight="400" font-size="55" x="2704.15" y="0">sales employee</tspan></text></g></svg>