<svg width="115" height="120" xmlns="http://www.w3.org/2000/svg" xmlns:xlink="http://www.w3.org/1999/xlink" overflow="hidden"><defs><clipPath id="clip0"><rect x="1124" y="54" width="115" height="120"/></clipPath></defs><g clip-path="url(#clip0)" transform="translate(-1124 -54)"><path d="M39.7726 78.867C41.3713 80.8048 42.2433 84.0505 42.2433 87.8776 42.2433 91.9469 40.9837 95.338 38.7068 97.2758 36.9144 98.7775 34.1047 99.6495 30.762 99.6495 26.2567 99.6495 22.6718 98.1962 20.831 95.6771 19.3776 93.6909 18.6025 90.978 18.6025 87.6838 18.6025 83.227 19.7652 79.7875 21.9936 77.9466 23.8345 76.3479 26.8865 75.4275 30.3745 75.4275 34.5891 75.379 37.9802 76.6386 39.7726 78.867ZM25.4332 81.7252C24.6581 82.8879 24.2705 84.8256 24.2705 87.4416 24.2705 93.0127 26.2083 95.5802 30.5198 95.5802 34.7344 95.5802 36.6722 93.0127 36.6722 87.4901 36.6722 81.919 34.7829 79.3999 30.5198 79.3999 28.2429 79.4483 26.4505 80.2719 25.4332 81.7252Z" fill="#244A9A" transform="matrix(1 0 0 1.00941 1124.12 54)"/><path d="M50.8663 99.5042 45.7797 99.5042 45.7797 75.5728 57.6969 75.5728C61.7662 75.5728 63.268 76.0088 64.8182 77.6075 66.2715 79.1577 67.0951 81.1439 67.0951 83.3239 67.0951 85.7461 66.1747 88.0714 64.576 89.4763 63.1711 90.7358 61.8147 91.1234 59.0049 91.1234L50.8663 91.1234 50.8663 99.5042ZM57.7938 86.8603C59.1018 86.8603 59.8769 86.6665 60.4098 86.2305 61.088 85.6976 61.524 84.4865 61.524 83.1301 61.524 81.5799 60.8942 80.4657 59.8285 80.0297 59.3925 79.8359 58.8112 79.7875 57.8907 79.7875L50.8663 79.7875 50.8663 86.8119 57.7938 86.8119Z" fill="#244A9A" transform="matrix(1 0 0 1.00941 1124.12 54)"/><path d="M70.3893 95.2411 81.2892 95.2411C83.1301 95.2411 84.1474 95.0958 84.7772 94.7082 85.6007 94.2238 86.0368 93.4487 86.0368 92.4798 86.0368 91.414 85.5039 90.4452 84.5834 89.9607 84.0505 89.6216 83.1301 89.4763 81.919 89.4763L77.5106 89.4763C74.7493 89.4763 72.9084 88.9918 71.6488 88.0229 70.1471 86.7634 69.2266 84.7772 69.2266 82.6457 69.2266 79.6906 70.8253 77.0746 73.1506 76.1541 74.3133 75.7181 75.5728 75.5728 78.4795 75.5728L90.2998 75.5728 90.2998 79.8359 79.5937 79.8359C77.3652 79.8359 76.5417 79.8843 75.9604 80.175 75.1853 80.611 74.7977 81.3861 74.7977 82.4519 74.7977 83.3723 75.1853 84.1959 75.8635 84.6319 76.4932 85.0194 77.3168 85.1647 79.1577 85.1647L82.9848 85.1647C86.4243 85.1647 88.2652 85.6492 89.6701 87.0056 90.8327 88.1198 91.6078 90.2514 91.6078 92.4314 91.6078 94.902 90.4936 97.1789 88.7496 98.39 87.5385 99.2135 86.0368 99.4558 82.355 99.4558L70.3409 99.4558 70.3409 95.2411Z" fill="#244A9A" transform="matrix(1 0 0 1.00941 1124.12 54)"/><path d="M27.1287 117.235 32.6998 117.235C34.6375 117.235 35.4126 116.653 35.4126 115.249 35.4126 114.28 35.0251 113.601 34.2984 113.408 33.9593 113.311 33.4264 113.262 32.3122 113.262L31.2465 113.262C29.6962 113.262 28.7274 113.069 28.0491 112.633 27.1771 112.051 26.6927 111.082 26.6927 109.871 26.6927 108.466 27.3709 107.255 28.4367 106.577 29.1634 106.141 30.0838 105.996 31.6825 105.996L37.0113 105.996 37.0113 107.643 31.6825 107.643C30.5198 107.643 30.0354 107.74 29.5994 108.03 29.1634 108.321 28.8727 108.902 28.8727 109.629 28.8727 110.937 29.6478 111.421 31.6825 111.421L32.4576 111.421C34.6375 111.421 35.558 111.615 36.2846 112.1 37.1082 112.729 37.6411 113.892 37.6411 115.2 37.6411 116.653 37.0113 117.816 35.8486 118.397 35.0735 118.785 34.3469 118.882 32.4576 118.882L27.1287 118.882 27.1287 117.235Z" fill="#C6C6C6" transform="matrix(1 0 0 1.00941 1124.12 54)"/><path d="M38.3193 107.594 38.3193 105.947 49.3161 105.947 49.3161 107.594 44.8592 107.594 44.8592 118.882 42.7762 118.882 42.7762 107.594 38.3193 107.594Z" fill="#C6C6C6" transform="matrix(1 0 0 1.00941 1124.12 54)"/><path d="M53.1432 105.947 55.8561 105.947 60.9911 118.882 58.8112 118.882 57.5032 115.491 51.3992 115.491 50.0428 118.882 47.8628 118.882 53.1432 105.947ZM51.9805 113.844 56.8249 113.844 54.4512 107.497 51.9805 113.844Z" fill="#C6C6C6" transform="matrix(1 0 0 1.00941 1124.12 54)"/><path d="M71.552 118.882 67.5311 118.882C65.2058 118.882 63.8978 118.494 62.8805 117.525 61.7662 116.46 61.1365 114.57 61.1365 112.487 61.1365 110.162 62.0085 107.933 63.3649 106.916 64.2369 106.238 65.4964 105.947 67.4342 105.947L71.552 105.947 71.552 107.594 67.5311 107.594C65.7871 107.594 65.012 107.837 64.4307 108.563 63.7525 109.387 63.3649 110.889 63.3649 112.584 63.3649 114.134 63.7525 115.442 64.4791 116.266 65.1573 117.041 65.9324 117.283 67.7249 117.283L71.552 117.283 71.552 118.882Z" fill="#C6C6C6" transform="matrix(1 0 0 1.00941 1124.12 54)"/><path d="M75.3306 118.882 73.2475 118.882 73.2475 105.947 75.3306 105.947 75.3306 118.882ZM81.5314 105.947 84.0505 105.947 77.5106 112.197 84.4381 118.882 81.6768 118.882 75.2822 112.293 81.5314 105.947Z" fill="#C6C6C6" transform="matrix(1 0 0 1.00941 1124.12 54)"/><path d="M93.4487 7.26662 90.6389 13.1768C97.9056 15.8897 103.089 22.9141 103.089 31.1011 103.089 41.6619 94.5145 50.2365 83.9537 50.2365 81.6283 50.2365 79.3999 49.8005 77.3652 49.0739 77.0746 48.977 76.7839 48.8317 76.4932 48.7348 76.3479 48.6863 76.2026 48.6379 76.1057 48.541 75.815 48.3957 75.5728 48.2988 75.2822 48.1535 75.1368 48.0566 74.9915 48.0081 74.8462 47.9112 74.6039 47.7659 74.3133 47.6206 74.071 47.4752 73.9257 47.3783 73.7804 47.2815 73.6835 47.233 73.4897 47.1361 73.2959 46.9908 73.1506 46.8455 73.0537 46.797 73.0053 46.7486 72.9084 46.7001L72.9084 46.7001C72.9084 46.7001 72.9084 46.7001 72.8599 46.7001 72.5693 47.1361 72.2302 47.5721 71.9395 47.9597 70.68 49.5099 69.3235 50.9632 68.6453 51.6899 68.6453 51.6899 68.6453 51.6899 68.6453 51.6899 61.0396 59.1018 50.3334 62.4929 39.8695 59.78 38.7553 59.4894 37.738 59.1503 36.6722 58.7627 39.482 61.2818 42.8246 63.1711 46.6032 64.14 56.3405 66.7075 66.5138 62.6867 73.5866 54.5965 76.7839 56.0014 80.3203 56.8249 84.0021 56.8249 98.1478 56.8249 109.629 45.3437 109.629 31.198 109.629 20.2981 102.895 11.0453 93.4487 7.26662" fill="#C6C6C6" transform="matrix(1 0 0 1.00941 1124.12 54)"/><path d="M72.8115 36.3331 72.8115 36.3331 72.7631 36.2846Z" fill="#244A9A" transform="matrix(1 0 0 1.00941 1124.12 54)"/><path d="M75.6697 21.7999C77.9466 20.4919 80.175 18.7479 82.3065 16.471 87.0541 11.4328 89.7669 5.47418 90.2514 0 84.8741 0.871994 79.0608 3.97242 74.3617 9.0106 72.2302 11.2875 70.6315 13.6128 69.4689 15.9866L59.2956 15.9381 55.2263 20.2981 64.0916 21.3639C64.0916 21.3639 64.5276 23.2532 61.7662 25.6754L66.4653 30.0838C68.6938 27.1771 70.5831 27.5163 70.5831 27.5163L72.2302 36.2846 76.2995 31.9247 75.6697 21.7999Z" fill="#244A9A" transform="matrix(1 0 0 1.00941 1124.12 54)"/><path d="M57.9876 30.0354C57.3094 30.762 49.7521 39.1428 46.9908 41.6135 42.1948 45.925 36.3815 49.3646 34.4438 50.1881 32.2638 51.0601 29.8416 51.6899 27.3709 51.9321 26.838 51.9805 26.402 52.029 26.1114 52.029 22.0421 52.1743 18.215 50.9148 15.0177 48.7348 14.9692 48.7348 14.9692 48.6863 14.9208 48.6863 14.727 48.541 14.5817 48.4441 14.3879 48.2988 11.675 46.3126 9.54349 43.6481 8.13861 40.5477 8.09017 40.4508 8.04172 40.4024 8.04172 40.3055 8.04172 40.3055 8.04172 40.2571 7.99328 40.2571 7.0244 37.9802 6.44307 35.4611 6.44307 32.8936 6.44307 26.6927 9.39816 21.1701 14.0003 17.6821 17.2461 15.2115 21.267 13.7097 25.6269 13.7097 30.0354 13.7097 34.0562 15.2115 37.302 17.6821 37.3504 17.6337 37.3504 17.5852 37.3989 17.5368 45.6344 5.95863 59.6831 0.678218 71.9395 5.47418 69.372 3.39109 66.4169 1.84088 63.0742 1.01733 53.6276-1.45332 43.745 2.22843 36.7206 9.78571 33.4264 8.13861 29.6478 7.21817 25.6754 7.21817 11.5297 7.21817 0 18.651 0 32.8451 0 46.8939 11.239 58.2783 25.2394 58.5205 33.8624 58.7143 41.5651 54.209 46.7486 50.3334 51.8836 46.5063 61.088 36.2846 62.6867 34.5407 60.6036 35.3158 58.7143 35.7518 57.0672 35.8971 57.0187 34.3469 57.3094 32.3122 57.9876 30.0354" fill="#244A9A" transform="matrix(1 0 0 1.00941 1124.12 54)"/><path d="M113.553 48.4926C113.553 57.5892 106.179 64.9636 97.082 64.9636 87.9853 64.9636 80.611 57.5892 80.611 48.4926 80.611 39.3959 87.9853 32.0216 97.082 32.0216 106.179 32.0216 113.553 39.3959 113.553 48.4926Z" stroke="#FFFFFF" stroke-width="2.42221" stroke-miterlimit="10" fill="#C7C6C6" transform="matrix(1 0 0 1.00941 1124.12 54)"/><path d="M87.5385 46.1188C86.9087 45.489 86.9572 44.8592 87.5385 44.3748L96.0647 39.3851C96.6945 38.9491 97.1789 38.9491 97.7602 39.3851L106.286 44.3748C106.965 44.9561 106.868 45.5859 106.286 46.1188L97.7602 51.1085C97.2758 51.4476 96.646 51.4961 96.0647 51.1085L87.5385 46.1188ZM97.9056 53.5307C97.3242 53.9183 96.6945 53.9667 95.9678 53.5307L87.1994 48.4926C87.0056 48.8801 87.1025 49.3161 87.5385 49.8005L96.0647 54.7903C96.6945 55.1778 97.2758 55.1294 97.7602 54.7903L106.286 49.8005C106.722 49.413 106.916 48.977 106.625 48.4926L97.9056 53.5307ZM97.9056 57.2125C97.3242 57.6001 96.6945 57.6485 95.9678 57.2125L87.1994 52.1743C87.0056 52.5619 87.1025 52.9979 87.5385 53.4823L96.0647 58.472C96.6945 58.8596 97.2758 58.8112 97.7602 58.472L106.286 53.4823C106.722 53.0947 106.916 52.6587 106.625 52.1743L97.9056 57.2125Z" fill="#FFFFFF" transform="matrix(1 0 0 1.00941 1124.12 54)"/></g></svg>