<svg width="148" height="157" xmlns="http://www.w3.org/2000/svg" xmlns:xlink="http://www.w3.org/1999/xlink" overflow="hidden"><defs><clipPath id="clip0"><rect x="49" y="172" width="148" height="157"/></clipPath></defs><g clip-path="url(#clip0)" transform="translate(-49 -172)"><path d="M19.6543 47.5447 19.6543 56.2175C20.7774 57.5278 22.0253 58.6509 23.3356 59.6492 23.5228 59.8364 23.7723 59.9612 23.9595 60.086 24.0219 60.086 24.0219 60.1484 24.0843 60.1484 25.7066 61.2715 27.516 62.2074 29.3879 62.8938L29.3879 47.5447 19.6543 47.5447 19.6543 47.5447Z" fill="#C6C6C6" transform="matrix(1 0 0 1.00164 49 172.191)"/><path d="M55.032 35.1906 45.2985 35.1906 45.2985 62.8314C46.1096 62.5818 46.9207 62.2698 47.7319 61.9578 49.0422 61.3963 51.8499 59.8364 55.032 57.6526L55.032 35.1906Z" fill="#C6C6C6" transform="matrix(1 0 0 1.00164 49 172.191)"/><path d="M32.4452 63.8297C34.1298 64.204 35.8145 64.3288 37.5616 64.2664 37.9359 64.2664 38.4351 64.204 39.059 64.1417 40.1197 64.0793 41.118 63.8921 42.1164 63.7049L42.1164 28.0776 32.4452 28.0776 32.4452 63.8297Z" fill="#C6C6C6" transform="matrix(1 0 0 1.00164 49 172.191)"/><path d="M123.728 9.35919 120.11 16.9713C129.469 20.4654 136.145 29.5126 136.145 40.0573 136.145 53.6594 125.101 64.7032 111.499 64.7032 108.504 64.7032 105.634 64.1417 103.013 63.2057 102.639 63.0809 102.265 62.8938 101.89 62.769 101.703 62.7066 101.516 62.6442 101.329 62.5194 100.954 62.3322 100.642 62.2074 100.268 62.0202 100.081 61.9578 99.8938 61.833 99.7066 61.7083 99.3946 61.5211 99.0202 61.3339 98.7083 61.1467 98.5211 61.0219 98.3339 60.8971 98.2091 60.8347 97.9595 60.7099 97.7099 60.5228 97.5228 60.3356 97.398 60.2732 97.2732 60.2108 97.2108 60.086L97.2108 60.086C97.2108 60.086 97.2108 60.086 97.1484 60.086 96.774 60.6475 96.3373 61.2091 95.9629 61.7083 94.3406 63.7049 92.5936 65.5767 91.7201 66.4502 91.7201 66.4502 91.7201 66.4502 91.7201 66.4502 81.9241 75.9966 68.1349 80.3643 54.6577 76.8701 53.285 76.4958 51.9123 76.059 50.5396 75.5599 54.1585 78.8044 58.4637 81.2378 63.3305 82.4857 75.8718 85.7926 88.9747 80.6138 98.0843 70.2563 102.202 72.0658 106.757 73.1265 111.499 73.1265 129.718 73.1265 144.506 58.339 144.506 40.1197 144.568 26.1433 135.958 14.226 123.728 9.35919" fill="#C6C6C6" transform="matrix(1 0 0 1.00164 49 172.191)"/><path d="M100.83 28.0776C103.762 26.3929 106.632 24.1467 109.378 21.2142 115.492 14.7251 118.987 7.05059 119.61 0 112.685 1.1231 105.197 5.11636 99.145 11.6054 96.3997 14.5379 94.3406 17.5329 92.8432 20.5902L79.7403 20.5278 74.4992 26.0809 85.9174 27.4536C85.9174 27.4536 86.4789 29.8246 82.9224 33.0067L88.9747 38.6847C91.8448 34.941 94.2782 35.3777 94.2782 35.3777L96.3997 46.6712 101.641 41.118 100.83 28.0776Z" fill="#244A9A" transform="matrix(1 0 0 1.00164 49 172.191)"/><path d="M78.0556 38.6847C77.1821 39.6206 67.4486 50.4148 63.8921 53.597 57.715 59.1501 50.2277 63.5801 47.7319 64.6408 44.9241 65.7639 41.8668 66.575 38.6223 66.887 37.9359 66.9494 37.3744 67.0118 37 67.0118 31.7589 67.199 26.8297 65.5767 22.7116 62.769 22.6492 62.769 22.6492 62.7066 22.5868 62.7066 22.3373 62.5194 22.1501 62.3946 21.9005 62.2074 18.4064 59.6492 15.661 56.2175 13.914 52.2243 13.8516 52.0995 13.7892 52.0371 13.7892 51.9123 13.7892 51.9123 13.7892 51.8499 13.7268 51.8499 12.4789 48.9174 11.7302 45.6728 11.7302 42.3659 11.7302 34.3794 15.5363 27.2664 21.4637 22.774 25.6442 19.5919 30.8229 17.6577 36.4384 17.6577 42.1164 17.6577 47.2951 19.5919 51.4755 22.774 51.5379 22.7116 51.5379 22.6492 51.6003 22.5868 62.2074 7.73693 80.2395 0.873524 96.0877 7.05059 92.7808 4.36762 88.9747 2.37099 84.7319 1.31029 72.5025-1.87184 59.8364 2.87015 50.7892 12.6037 46.484 10.4823 41.6172 9.35919 36.5008 9.29679 18.2816 9.29679 3.4317 24.0843 3.4317 42.3035 3.4317 60.398 17.9073 75.0607 35.9393 75.3727 47.0455 75.6223 56.9663 69.8196 63.6425 64.828 70.2563 59.8988 82.1113 46.7336 84.1703 44.4874 81.4874 45.4857 79.054 46.0472 76.9325 46.2344 76.8078 44.2378 77.2445 41.6172 78.0556 38.6847" fill="#244A9A" transform="matrix(1 0 0 1.00164 49 172.191)"/><path d="M25.0202 128.346 14.2884 128.346C9.2344 128.346 6.73862 127.659 4.36762 125.6 1.49747 123.105-1.10835e-15 118.737-1.10835e-15 113.059-1.10835e-15 106.258 2.37099 101.266 6.48904 99.0826 8.36088 98.1467 11.4182 97.5852 14.6003 97.5852L25.0202 97.5852 25.0202 103.076 15.3491 103.076C12.3541 103.076 10.2951 103.825 8.86003 105.447 7.79932 106.695 7.17538 109.128 7.17538 112.435 7.17538 116.803 8.1113 119.985 9.79595 121.42 11.0438 122.418 12.9157 122.917 15.5363 122.917L24.9578 122.917 25.0202 128.346 25.0202 128.346Z" fill="#244A9A" transform="matrix(1 0 0 1.00164 49 172.191)"/><path d="M35.9393 97.5852 35.9393 114.868C36.1265 119.985 36.1889 120.297 37.4368 121.545 38.6847 122.605 40.1821 122.855 44.1754 122.855L50.4772 122.855 50.4772 128.346 43.489 128.346C37.4368 128.408 35.4401 127.909 32.7572 125.912 30.0118 123.479 29.3879 121.295 29.3255 114.806L29.3255 97.5228 35.9393 97.5852 35.9393 97.5852Z" fill="#244A9A" transform="matrix(1 0 0 1.00164 49 172.191)"/><path d="M79.1787 101.828C81.2378 104.324 82.3609 108.504 82.3609 113.433 82.3609 118.675 80.7386 123.042 77.8685 125.538 75.5599 127.472 71.941 128.595 67.6357 128.595 61.8954 128.595 57.2782 126.723 54.8449 123.479 52.973 120.921 51.9747 117.427 51.9747 113.184 51.9747 107.444 53.4722 103.013 56.3423 100.642 58.7757 98.5835 62.6442 97.398 67.1366 97.398 72.5025 97.3356 76.8701 98.9578 79.1787 101.828ZM60.7099 105.509C59.7116 107.007 59.2125 109.503 59.2125 112.872 59.2125 120.047 61.7083 123.354 67.2614 123.354 72.6897 123.354 75.1855 120.11 75.1855 112.997 75.1855 105.821 72.7521 102.577 67.2614 102.577 64.3288 102.577 62.0202 103.637 60.7099 105.509Z" fill="#244A9A" transform="matrix(1 0 0 1.00164 49 172.191)"/><path d="M93.2799 116.054C93.2799 118.987 93.7167 120.422 94.9022 121.545 96.0877 122.73 98.1467 123.417 100.331 123.417 103.263 123.417 105.572 122.356 106.445 120.671 106.882 119.735 107.069 118.425 107.069 116.054L107.069 97.5852 113.558 97.5852 113.558 115.742C113.558 120.484 112.56 123.479 110.438 125.413 107.943 127.597 104.698 128.595 100.081 128.595 95.339 128.595 91.9072 127.597 89.7234 125.476 87.4148 123.292 86.6661 121.046 86.6661 116.179L86.6661 97.5852 93.2175 97.5852 93.2799 116.054 93.2799 116.054Z" fill="#244A9A" transform="matrix(1 0 0 1.00164 49 172.191)"/><path d="M132.526 97.5852C138.703 97.5852 142.197 98.7707 144.693 101.578 146.69 103.825 147.938 108.317 147.938 113.059 147.938 115.617 147.501 118.612 146.752 120.921 145.567 124.602 143.383 126.848 139.764 127.784 138.142 128.221 136.457 128.408 132.526 128.408L119.486 128.408 119.486 97.5852 132.526 97.5852ZM126.037 122.855 132.526 122.855C135.271 122.855 137.393 122.169 138.454 120.983 139.826 119.423 140.7 116.241 140.7 112.997 140.7 109.315 139.639 106.071 138.017 104.636 136.707 103.513 135.209 103.076 132.464 103.076L126.037 103.076 126.037 122.855 126.037 122.855Z" fill="#244A9A" transform="matrix(1 0 0 1.00164 49 172.191)"/><path d="M13.9764 136.707C17.3457 136.707 18.7184 137.081 20.0911 138.454 21.5885 139.951 22.3373 142.01 22.3373 144.88 22.3373 148.562 21.339 151.12 19.3423 152.368 18.0944 153.179 17.0961 153.366 14.2884 153.366L7.54975 153.366 7.54975 136.707 13.9764 136.707ZM10.2327 151.182 14.4755 151.182C16.4098 151.182 17.6577 150.683 18.4064 149.56 19.0927 148.562 19.4671 147.064 19.4671 145.192 19.4671 143.133 19.0304 141.324 18.2816 140.263 17.5329 139.202 16.4098 138.766 14.2884 138.766L10.2327 138.766 10.2327 151.182Z" fill="#C6C6C6" transform="matrix(1 0 0 1.00164 49 172.191)"/><path d="M36.9376 138.828 32.0708 138.828C28.7639 138.703 27.1417 140.325 26.9545 143.944L36.8752 143.944 36.8752 146.066 26.8921 146.066C26.9545 149.56 28.7639 151.432 31.8836 151.245L36.8752 151.245 36.8752 153.366 31.3845 153.366C28.5143 153.366 26.9545 152.742 25.7066 151.245 24.5211 149.747 23.9595 147.938 23.9595 145.379 23.9595 142.073 24.8331 139.702 26.7049 138.142 27.8904 137.143 29.5126 136.707 32.1332 136.707L36.8128 136.707C36.9376 136.707 36.9376 138.828 36.9376 138.828Z" fill="#C6C6C6" transform="matrix(1 0 0 1.00164 49 172.191)"/><path d="M51.7875 138.828 46.9207 138.828C43.6138 138.703 41.9916 140.325 41.8044 143.944L51.7875 143.944 51.7875 146.066 41.8044 146.066C41.8668 149.56 43.6762 151.432 46.796 151.245L51.7875 151.245 51.7875 153.366 46.2968 153.366C43.4266 153.366 41.8668 152.742 40.6189 151.245 39.4334 149.747 38.8718 147.938 38.8718 145.379 38.8718 142.073 39.7454 139.702 41.6172 138.142 42.8027 137.143 44.425 136.707 47.0455 136.707L51.7875 136.707 51.7875 138.828Z" fill="#C6C6C6" transform="matrix(1 0 0 1.00164 49 172.191)"/><path d="M57.403 153.304 54.7201 153.304 54.7201 136.644 62.0826 136.644C64.3912 136.644 65.4519 136.956 66.5126 137.892 67.511 138.828 68.0101 140.138 68.0101 141.885 68.0101 143.695 67.3862 145.255 66.2631 146.191 65.3895 146.939 64.0169 147.251 61.5835 147.251L57.403 147.251 57.403 153.304 57.403 153.304ZM61.7707 145.192C63.0809 145.192 63.8297 144.943 64.3912 144.443 64.8904 143.944 65.2024 142.946 65.2024 141.885 65.2024 140.887 64.8904 140.076 64.3912 139.514 63.8921 139.015 63.1433 138.828 61.7083 138.828L57.403 138.828 57.403 145.192 61.7707 145.192 61.7707 145.192Z" fill="#C6C6C6" transform="matrix(1 0 0 1.00164 49 172.191)"/><path d="M81.113 154.302 81.113 156.423 68.6341 156.423 68.6341 154.302 81.113 154.302Z" fill="#C6C6C6" transform="matrix(1 0 0 1.00164 49 172.191)"/><path d="M91.4705 153.304 88.2884 153.304 81.1754 136.644 84.2327 136.644 89.9106 150.808 95.6509 136.644 98.5211 136.644 91.4705 153.304Z" fill="#C6C6C6" transform="matrix(1 0 0 1.00164 49 172.191)"/><path d="M100.331 136.707 103.013 136.707 103.013 153.366 100.331 153.366 100.331 136.707Z" fill="#C6C6C6" transform="matrix(1 0 0 1.00164 49 172.191)"/><path d="M118.487 138.828 113.621 138.828C110.314 138.703 108.691 140.325 108.504 143.944L118.425 143.944 118.425 146.066 108.442 146.066C108.504 149.56 110.314 151.432 113.433 151.245L118.425 151.245 118.425 153.366 112.934 153.366C110.064 153.366 108.504 152.742 107.256 151.245 106.071 149.747 105.509 147.938 105.509 145.379 105.509 142.073 106.383 139.702 108.255 138.142 109.44 137.143 111.062 136.707 113.683 136.707L118.363 136.707 118.487 138.828 118.487 138.828Z" fill="#C6C6C6" transform="matrix(1 0 0 1.00164 49 172.191)"/><path d="M125.975 150.621 129.344 136.644 132.651 136.644 136.02 150.621 139.078 136.644 141.885 136.644 137.642 153.304 134.273 153.304 131.029 139.764 127.597 153.304 124.165 153.304 120.047 136.644 122.917 136.644 125.975 150.621Z" fill="#C6C6C6" transform="matrix(1 0 0 1.00164 49 172.191)"/></g></svg>